<svg id="visual" viewBox="0 0 2560 1440" width="2560" height="1440" xmlns="http://www.w3.org/2000/svg" xmlns:xlink="http://www.w3.org/1999/xlink" version="1.1"><rect x="0" y="0" width="2560" height="1440" fill="#44475a"></rect><path d="M0 1129L53.3 1101C106.7 1073 213.3 1017 320 1017.8C426.7 1018.7 533.3 1076.3 640 1078.5C746.7 1080.7 853.3 1027.3 960 1007C1066.7 986.7 1173.3 999.3 1280 1009.3C1386.7 1019.3 1493.3 1026.7 1600 1022C1706.7 1017.3 1813.3 1000.7 1920 1013.3C2026.7 1026 2133.3 1068 2240 1069.7C2346.7 1071.3 2453.3 1032.7 2506.7 1013.3L2560 994L2560 1441L2506.7 1441C2453.3 1441 2346.7 1441 2240 1441C2133.3 1441 2026.7 1441 1920 1441C1813.3 1441 1706.7 1441 1600 1441C1493.3 1441 1386.7 1441 1280 1441C1173.3 1441 1066.7 1441 960 1441C853.3 1441 746.7 1441 640 1441C533.3 1441 426.7 1441 320 1441C213.3 1441 106.7 1441 53.3 1441L0 1441Z" fill="#9c6ae5"></path><path d="M0 1066L53.3 1079.5C106.7 1093 213.3 1120 320 1125.7C426.7 1131.3 533.3 1115.7 640 1113.7C746.7 1111.7 853.3 1123.3 960 1142.5C1066.7 1161.7 1173.3 1188.3 1280 1194.2C1386.7 1200 1493.3 1185 1600 1161.5C1706.7 1138 1813.3 1106 1920 1104.8C2026.7 1103.7 2133.3 1133.3 2240 1147.7C2346.7 1162 2453.3 1161 2506.7 1160.5L2560 1160L2560 1441L2506.7 1441C2453.3 1441 2346.7 1441 2240 1441C2133.3 1441 2026.7 1441 1920 1441C1813.3 1441 1706.7 1441 1600 1441C1493.3 1441 1386.7 1441 1280 1441C1173.3 1441 1066.7 1441 960 1441C853.3 1441 746.7 1441 640 1441C533.3 1441 426.7 1441 320 1441C213.3 1441 106.7 1441 53.3 1441L0 1441Z" fill="#b285f2"></path><path d="M0 1256L53.3 1260C106.7 1264 213.3 1272 320 1258.8C426.7 1245.7 533.3 1211.3 640 1207.2C746.7 1203 853.3 1229 960 1231.5C1066.7 1234 1173.3 1213 1280 1219.7C1386.7 1226.3 1493.3 1260.7 1600 1267C1706.7 1273.3 1813.3 1251.7 1920 1231.5C2026.7 1211.3 2133.3 1192.7 2240 1199.5C2346.7 1206.3 2453.3 1238.7 2506.7 1254.8L2560 1271L2560 1441L2506.7 1441C2453.3 1441 2346.7 1441 2240 1441C2133.3 1441 2026.7 1441 1920 1441C1813.3 1441 1706.7 1441 1600 1441C1493.3 1441 1386.7 1441 1280 1441C1173.3 1441 1066.7 1441 960 1441C853.3 1441 746.7 1441 640 1441C533.3 1441 426.7 1441 320 1441C213.3 1441 106.7 1441 53.3 1441L0 1441Z" fill="#c49efb"></path><path d="M0 1357L53.3 1348.5C106.7 1340 213.3 1323 320 1309.2C426.7 1295.3 533.3 1284.7 640 1286C746.7 1287.3 853.3 1300.7 960 1312C1066.7 1323.3 1173.3 1332.7 1280 1333.8C1386.7 1335 1493.3 1328 1600 1328C1706.7 1328 1813.3 1335 1920 1336.3C2026.7 1337.7 2133.3 1333.3 2240 1324.5C2346.7 1315.7 2453.3 1302.3 2506.7 1295.7L2560 1289L2560 1441L2506.7 1441C2453.3 1441 2346.7 1441 2240 1441C2133.3 1441 2026.7 1441 1920 1441C1813.3 1441 1706.7 1441 1600 1441C1493.3 1441 1386.7 1441 1280 1441C1173.3 1441 1066.7 1441 960 1441C853.3 1441 746.7 1441 640 1441C533.3 1441 426.7 1441 320 1441C213.3 1441 106.7 1441 53.3 1441L0 1441Z" fill="#d1b5fd"></path></svg>