<svg id="visual" viewBox="0 0 900 900" width="900" height="900" xmlns="http://www.w3.org/2000/svg" xmlns:xlink="http://www.w3.org/1999/xlink" version="1.1"><rect x="0" y="0" width="900" height="900" fill="#44475a"></rect><path d="M0 705L18.8 687.5C37.7 670 75.3 635 112.8 635.7C150.3 636.3 187.7 672.7 225.2 674.2C262.7 675.7 300.3 642.3 337.8 629.5C375.3 616.7 412.7 624.3 450.2 630.5C487.7 636.7 525.3 641.3 562.8 638.5C600.3 635.7 637.7 625.3 675.2 633.2C712.7 641 750.3 667 787.8 668C825.3 669 862.7 645 881.3 633L900 621L900 901L881.3 901C862.7 901 825.3 901 787.8 901C750.3 901 712.7 901 675.2 901C637.7 901 600.3 901 562.8 901C525.3 901 487.7 901 450.2 901C412.7 901 375.3 901 337.8 901C300.3 901 262.7 901 225.2 901C187.7 901 150.3 901 112.8 901C75.3 901 37.7 901 18.8 901L0 901Z" fill="#9c6ae5"></path><path d="M0 666L18.8 674.5C37.7 683 75.3 700 112.8 703.5C150.3 707 187.7 697 225.2 695.7C262.7 694.3 300.3 701.7 337.8 713.7C375.3 725.7 412.7 742.3 450.2 746C487.7 749.7 525.3 740.3 562.8 725.7C600.3 711 637.7 691 675.2 690.2C712.7 689.3 750.3 707.7 787.8 716.7C825.3 725.7 862.7 725.3 881.3 725.2L900 725L900 901L881.3 901C862.7 901 825.3 901 787.8 901C750.3 901 712.7 901 675.2 901C637.7 901 600.3 901 562.8 901C525.3 901 487.7 901 450.2 901C412.7 901 375.3 901 337.8 901C300.3 901 262.7 901 225.2 901C187.7 901 150.3 901 112.8 901C75.3 901 37.7 901 18.8 901L0 901Z" fill="#b285f2"></path><path d="M0 785L18.8 787.5C37.7 790 75.3 795 112.8 786.7C150.3 778.3 187.7 756.7 225.2 754C262.7 751.3 300.3 767.7 337.8 769.3C375.3 771 412.7 758 450.2 762.2C487.7 766.3 525.3 787.7 562.8 791.5C600.3 795.3 637.7 781.7 675.2 769C712.7 756.3 750.3 744.7 787.8 749C825.3 753.3 862.7 773.7 881.3 783.8L900 794L900 901L881.3 901C862.7 901 825.3 901 787.8 901C750.3 901 712.7 901 675.2 901C637.7 901 600.3 901 562.8 901C525.3 901 487.7 901 450.2 901C412.7 901 375.3 901 337.8 901C300.3 901 262.7 901 225.2 901C187.7 901 150.3 901 112.8 901C75.3 901 37.7 901 18.8 901L0 901Z" fill="#c49efb"></path><path d="M0 848L18.8 842.7C37.7 837.3 75.3 826.7 112.8 818C150.3 809.3 187.7 802.7 225.2 803.5C262.7 804.3 300.3 812.7 337.8 819.8C375.3 827 412.7 833 450.2 833.7C487.7 834.3 525.3 829.7 562.8 829.5C600.3 829.3 637.7 833.7 675.2 834.5C712.7 835.3 750.3 832.7 787.8 827.2C825.3 821.7 862.7 813.3 881.3 809.2L900 805L900 901L881.3 901C862.7 901 825.3 901 787.8 901C750.3 901 712.7 901 675.2 901C637.7 901 600.3 901 562.8 901C525.3 901 487.7 901 450.2 901C412.7 901 375.3 901 337.8 901C300.3 901 262.7 901 225.2 901C187.7 901 150.3 901 112.8 901C75.3 901 37.7 901 18.8 901L0 901Z" fill="#d1b5fd"></path></svg>