<svg id="visual" viewBox="0 0 450 900" width="450" height="900" xmlns="http://www.w3.org/2000/svg" xmlns:xlink="http://www.w3.org/1999/xlink" version="1.1"><rect x="0" y="0" width="450" height="900" fill="#44475a"></rect><path d="M0 705L9.3 687.5C18.7 670 37.3 635 56.2 635.7C75 636.3 94 672.7 112.8 674.2C131.7 675.7 150.3 642.3 169 629.5C187.7 616.7 206.3 624.3 225 630.5C243.7 636.7 262.3 641.3 281.2 638.5C300 635.7 319 625.3 337.8 633.2C356.7 641 375.3 667 394 668C412.7 669 431.3 645 440.7 633L450 621L450 901L440.7 901C431.3 901 412.7 901 394 901C375.3 901 356.7 901 337.8 901C319 901 300 901 281.2 901C262.3 901 243.7 901 225 901C206.3 901 187.7 901 169 901C150.3 901 131.7 901 112.8 901C94 901 75 901 56.2 901C37.3 901 18.7 901 9.3 901L0 901Z" fill="#9c6ae5"></path><path d="M0 666L9.3 674.5C18.7 683 37.3 700 56.2 703.5C75 707 94 697 112.8 695.7C131.7 694.3 150.3 701.7 169 713.7C187.7 725.7 206.3 742.3 225 746C243.7 749.7 262.3 740.3 281.2 725.7C300 711 319 691 337.8 690.2C356.7 689.3 375.3 707.7 394 716.7C412.7 725.7 431.3 725.3 440.7 725.2L450 725L450 901L440.7 901C431.3 901 412.7 901 394 901C375.3 901 356.7 901 337.8 901C319 901 300 901 281.2 901C262.3 901 243.7 901 225 901C206.3 901 187.7 901 169 901C150.3 901 131.7 901 112.8 901C94 901 75 901 56.2 901C37.3 901 18.7 901 9.3 901L0 901Z" fill="#b285f2"></path><path d="M0 785L9.3 787.5C18.7 790 37.3 795 56.2 786.7C75 778.3 94 756.7 112.8 754C131.7 751.3 150.3 767.7 169 769.3C187.7 771 206.3 758 225 762.2C243.7 766.3 262.3 787.7 281.2 791.5C300 795.3 319 781.7 337.8 769C356.7 756.3 375.3 744.7 394 749C412.7 753.3 431.3 773.7 440.7 783.8L450 794L450 901L440.7 901C431.3 901 412.7 901 394 901C375.3 901 356.7 901 337.8 901C319 901 300 901 281.2 901C262.3 901 243.7 901 225 901C206.3 901 187.7 901 169 901C150.3 901 131.7 901 112.8 901C94 901 75 901 56.2 901C37.3 901 18.7 901 9.3 901L0 901Z" fill="#c49efb"></path><path d="M0 848L9.3 842.7C18.7 837.3 37.3 826.7 56.2 818C75 809.3 94 802.7 112.8 803.5C131.7 804.3 150.3 812.7 169 819.8C187.7 827 206.3 833 225 833.7C243.7 834.3 262.3 829.7 281.2 829.5C300 829.3 319 833.7 337.8 834.5C356.7 835.3 375.3 832.7 394 827.2C412.7 821.7 431.3 813.3 440.7 809.2L450 805L450 901L440.7 901C431.3 901 412.7 901 394 901C375.3 901 356.7 901 337.8 901C319 901 300 901 281.2 901C262.3 901 243.7 901 225 901C206.3 901 187.7 901 169 901C150.3 901 131.7 901 112.8 901C94 901 75 901 56.2 901C37.3 901 18.7 901 9.3 901L0 901Z" fill="#d1b5fd"></path></svg>