<svg id="visual" viewBox="0 0 600 900" width="600" height="900" xmlns="http://www.w3.org/2000/svg" xmlns:xlink="http://www.w3.org/1999/xlink" version="1.1"><rect x="0" y="0" width="600" height="900" fill="#44475a"></rect><path d="M0 705L12.5 687.5C25 670 50 635 75 635.7C100 636.3 125 672.7 150 674.2C175 675.7 200 642.3 225 629.5C250 616.7 275 624.3 300 630.5C325 636.7 350 641.3 375 638.5C400 635.7 425 625.3 450 633.2C475 641 500 667 525 668C550 669 575 645 587.5 633L600 621L600 901L587.5 901C575 901 550 901 525 901C500 901 475 901 450 901C425 901 400 901 375 901C350 901 325 901 300 901C275 901 250 901 225 901C200 901 175 901 150 901C125 901 100 901 75 901C50 901 25 901 12.5 901L0 901Z" fill="#9c6ae5"></path><path d="M0 666L12.5 674.5C25 683 50 700 75 703.5C100 707 125 697 150 695.7C175 694.3 200 701.7 225 713.7C250 725.7 275 742.3 300 746C325 749.7 350 740.3 375 725.7C400 711 425 691 450 690.2C475 689.3 500 707.7 525 716.7C550 725.7 575 725.3 587.5 725.2L600 725L600 901L587.5 901C575 901 550 901 525 901C500 901 475 901 450 901C425 901 400 901 375 901C350 901 325 901 300 901C275 901 250 901 225 901C200 901 175 901 150 901C125 901 100 901 75 901C50 901 25 901 12.5 901L0 901Z" fill="#b285f2"></path><path d="M0 785L12.5 787.5C25 790 50 795 75 786.7C100 778.3 125 756.7 150 754C175 751.3 200 767.7 225 769.3C250 771 275 758 300 762.2C325 766.3 350 787.7 375 791.5C400 795.3 425 781.7 450 769C475 756.3 500 744.7 525 749C550 753.3 575 773.7 587.5 783.8L600 794L600 901L587.5 901C575 901 550 901 525 901C500 901 475 901 450 901C425 901 400 901 375 901C350 901 325 901 300 901C275 901 250 901 225 901C200 901 175 901 150 901C125 901 100 901 75 901C50 901 25 901 12.5 901L0 901Z" fill="#c49efb"></path><path d="M0 848L12.5 842.7C25 837.3 50 826.7 75 818C100 809.3 125 802.7 150 803.5C175 804.3 200 812.7 225 819.8C250 827 275 833 300 833.7C325 834.3 350 829.7 375 829.5C400 829.3 425 833.7 450 834.5C475 835.3 500 832.7 525 827.2C550 821.7 575 813.3 587.5 809.2L600 805L600 901L587.5 901C575 901 550 901 525 901C500 901 475 901 450 901C425 901 400 901 375 901C350 901 325 901 300 901C275 901 250 901 225 901C200 901 175 901 150 901C125 901 100 901 75 901C50 901 25 901 12.5 901L0 901Z" fill="#d1b5fd"></path></svg>