<svg id="visual" viewBox="0 0 900 600" width="900" height="600" xmlns="http://www.w3.org/2000/svg" xmlns:xlink="http://www.w3.org/1999/xlink" version="1.1"><rect x="0" y="0" width="900" height="600" fill="#44475a"></rect><path d="M0 470L18.8 458.3C37.7 446.7 75.3 423.3 112.8 423.7C150.3 424 187.7 448 225.2 448.8C262.7 449.7 300.3 427.3 337.8 418.8C375.3 410.3 412.7 415.7 450.2 419.8C487.7 424 525.3 427 562.8 425.2C600.3 423.3 637.7 416.7 675.2 422C712.7 427.3 750.3 444.7 787.8 445.3C825.3 446 862.7 430 881.3 422L900 414L900 601L881.3 601C862.7 601 825.3 601 787.8 601C750.3 601 712.7 601 675.2 601C637.7 601 600.3 601 562.8 601C525.3 601 487.7 601 450.2 601C412.7 601 375.3 601 337.8 601C300.3 601 262.7 601 225.2 601C187.7 601 150.3 601 112.8 601C75.3 601 37.7 601 18.8 601L0 601Z" fill="#9c6ae5"></path><path d="M0 444L18.8 449.5C37.7 455 75.3 466 112.8 468.3C150.3 470.7 187.7 464.3 225.2 463.5C262.7 462.7 300.3 467.3 337.8 475.3C375.3 483.3 412.7 494.7 450.2 497.2C487.7 499.7 525.3 493.3 562.8 483.5C600.3 473.7 637.7 460.3 675.2 459.8C712.7 459.3 750.3 471.7 787.8 477.7C825.3 483.7 862.7 483.3 881.3 483.2L900 483L900 601L881.3 601C862.7 601 825.3 601 787.8 601C750.3 601 712.7 601 675.2 601C637.7 601 600.3 601 562.8 601C525.3 601 487.7 601 450.2 601C412.7 601 375.3 601 337.8 601C300.3 601 262.7 601 225.2 601C187.7 601 150.3 601 112.8 601C75.3 601 37.7 601 18.8 601L0 601Z" fill="#b285f2"></path><path d="M0 523L18.8 524.7C37.7 526.3 75.3 529.7 112.8 524.2C150.3 518.7 187.7 504.3 225.2 502.7C262.7 501 300.3 512 337.8 513C375.3 514 412.7 505 450.2 507.7C487.7 510.3 525.3 524.7 562.8 527.3C600.3 530 637.7 521 675.2 512.5C712.7 504 750.3 496 787.8 498.8C825.3 501.7 862.7 515.3 881.3 522.2L900 529L900 601L881.3 601C862.7 601 825.3 601 787.8 601C750.3 601 712.7 601 675.2 601C637.7 601 600.3 601 562.8 601C525.3 601 487.7 601 450.2 601C412.7 601 375.3 601 337.8 601C300.3 601 262.7 601 225.2 601C187.7 601 150.3 601 112.8 601C75.3 601 37.7 601 18.8 601L0 601Z" fill="#c49efb"></path><path d="M0 565L18.8 561.5C37.7 558 75.3 551 112.8 545.2C150.3 539.3 187.7 534.7 225.2 535.2C262.7 535.7 300.3 541.3 337.8 546.2C375.3 551 412.7 555 450.2 555.5C487.7 556 525.3 553 562.8 553C600.3 553 637.7 556 675.2 556.5C712.7 557 750.3 555 787.8 551.2C825.3 547.3 862.7 541.7 881.3 538.8L900 536L900 601L881.3 601C862.7 601 825.3 601 787.8 601C750.3 601 712.7 601 675.2 601C637.7 601 600.3 601 562.8 601C525.3 601 487.7 601 450.2 601C412.7 601 375.3 601 337.8 601C300.3 601 262.7 601 225.2 601C187.7 601 150.3 601 112.8 601C75.3 601 37.7 601 18.8 601L0 601Z" fill="#d1b5fd"></path></svg>