<svg id="visual" viewBox="0 0 675 900" width="675" height="900" xmlns="http://www.w3.org/2000/svg" xmlns:xlink="http://www.w3.org/1999/xlink" version="1.1"><rect x="0" y="0" width="675" height="900" fill="#44475a"></rect><path d="M0 705L14 687.5C28 670 56 635 84.2 635.7C112.3 636.3 140.7 672.7 168.8 674.2C197 675.7 225 642.3 253.2 629.5C281.3 616.7 309.7 624.3 337.8 630.5C366 636.7 394 641.3 422 638.5C450 635.7 478 625.3 506.2 633.2C534.3 641 562.7 667 590.8 668C619 669 647 645 661 633L675 621L675 901L661 901C647 901 619 901 590.8 901C562.7 901 534.3 901 506.2 901C478 901 450 901 422 901C394 901 366 901 337.8 901C309.7 901 281.3 901 253.2 901C225 901 197 901 168.8 901C140.7 901 112.3 901 84.2 901C56 901 28 901 14 901L0 901Z" fill="#9c6ae5"></path><path d="M0 666L14 674.5C28 683 56 700 84.2 703.5C112.3 707 140.7 697 168.8 695.7C197 694.3 225 701.7 253.2 713.7C281.3 725.7 309.7 742.3 337.8 746C366 749.7 394 740.3 422 725.7C450 711 478 691 506.2 690.2C534.3 689.3 562.7 707.7 590.8 716.7C619 725.7 647 725.3 661 725.2L675 725L675 901L661 901C647 901 619 901 590.8 901C562.7 901 534.3 901 506.2 901C478 901 450 901 422 901C394 901 366 901 337.8 901C309.7 901 281.3 901 253.2 901C225 901 197 901 168.8 901C140.7 901 112.3 901 84.2 901C56 901 28 901 14 901L0 901Z" fill="#b285f2"></path><path d="M0 785L14 787.5C28 790 56 795 84.2 786.7C112.3 778.3 140.7 756.7 168.8 754C197 751.3 225 767.7 253.2 769.3C281.3 771 309.7 758 337.8 762.2C366 766.3 394 787.7 422 791.5C450 795.3 478 781.7 506.2 769C534.3 756.3 562.7 744.7 590.8 749C619 753.3 647 773.7 661 783.8L675 794L675 901L661 901C647 901 619 901 590.8 901C562.7 901 534.3 901 506.2 901C478 901 450 901 422 901C394 901 366 901 337.8 901C309.7 901 281.3 901 253.2 901C225 901 197 901 168.8 901C140.7 901 112.3 901 84.2 901C56 901 28 901 14 901L0 901Z" fill="#c49efb"></path><path d="M0 848L14 842.7C28 837.3 56 826.7 84.2 818C112.3 809.3 140.7 802.7 168.8 803.5C197 804.3 225 812.7 253.2 819.8C281.3 827 309.7 833 337.8 833.7C366 834.3 394 829.7 422 829.5C450 829.3 478 833.7 506.2 834.5C534.3 835.3 562.7 832.7 590.8 827.2C619 821.7 647 813.3 661 809.2L675 805L675 901L661 901C647 901 619 901 590.8 901C562.7 901 534.3 901 506.2 901C478 901 450 901 422 901C394 901 366 901 337.8 901C309.7 901 281.3 901 253.2 901C225 901 197 901 168.8 901C140.7 901 112.3 901 84.2 901C56 901 28 901 14 901L0 901Z" fill="#d1b5fd"></path></svg>