<svg id="visual" viewBox="0 0 540 960" width="540" height="960" xmlns="http://www.w3.org/2000/svg" xmlns:xlink="http://www.w3.org/1999/xlink" version="1.1"><rect x="0" y="0" width="540" height="960" fill="#44475a"></rect><path d="M0 752L11.3 733.3C22.7 714.7 45.3 677.3 67.8 678C90.3 678.7 112.7 717.3 135.2 718.8C157.7 720.3 180.3 684.7 202.8 671.2C225.3 657.7 247.7 666.3 270.2 673C292.7 679.7 315.3 684.3 337.8 681.2C360.3 678 382.7 667 405.2 675.3C427.7 683.7 450.3 711.3 472.8 712.3C495.3 713.3 517.7 687.7 528.8 674.8L540 662L540 961L528.8 961C517.7 961 495.3 961 472.8 961C450.3 961 427.7 961 405.2 961C382.7 961 360.3 961 337.8 961C315.3 961 292.7 961 270.2 961C247.7 961 225.3 961 202.8 961C180.3 961 157.7 961 135.2 961C112.7 961 90.3 961 67.8 961C45.3 961 22.7 961 11.3 961L0 961Z" fill="#9c6ae5"></path><path d="M0 710L11.3 719.2C22.7 728.3 45.3 746.7 67.8 750.5C90.3 754.3 112.7 743.7 135.2 742.2C157.7 740.7 180.3 748.3 202.8 761.2C225.3 774 247.7 792 270.2 796C292.7 800 315.3 790 337.8 774.3C360.3 758.7 382.7 737.3 405.2 736.5C427.7 735.7 450.3 755.3 472.8 764.8C495.3 774.3 517.7 773.7 528.8 773.3L540 773L540 961L528.8 961C517.7 961 495.3 961 472.8 961C450.3 961 427.7 961 405.2 961C382.7 961 360.3 961 337.8 961C315.3 961 292.7 961 270.2 961C247.7 961 225.3 961 202.8 961C180.3 961 157.7 961 135.2 961C112.7 961 90.3 961 67.8 961C45.3 961 22.7 961 11.3 961L0 961Z" fill="#b285f2"></path><path d="M0 837L11.3 839.7C22.7 842.3 45.3 847.7 67.8 838.8C90.3 830 112.7 807 135.2 804.3C157.7 801.7 180.3 819.3 202.8 821.2C225.3 823 247.7 809 270.2 813.3C292.7 817.7 315.3 840.3 337.8 844.3C360.3 848.3 382.7 833.7 405.2 820.2C427.7 806.7 450.3 794.3 472.8 799C495.3 803.7 517.7 825.3 528.8 836.2L540 847L540 961L528.8 961C517.7 961 495.3 961 472.8 961C450.3 961 427.7 961 405.2 961C382.7 961 360.3 961 337.8 961C315.3 961 292.7 961 270.2 961C247.7 961 225.3 961 202.8 961C180.3 961 157.7 961 135.2 961C112.7 961 90.3 961 67.8 961C45.3 961 22.7 961 11.3 961L0 961Z" fill="#c49efb"></path><path d="M0 904L11.3 898.5C22.7 893 45.3 882 67.8 872.8C90.3 863.7 112.7 856.3 135.2 857.2C157.7 858 180.3 867 202.8 874.7C225.3 882.3 247.7 888.7 270.2 889.3C292.7 890 315.3 885 337.8 884.8C360.3 884.7 382.7 889.3 405.2 890.2C427.7 891 450.3 888 472.8 882.2C495.3 876.3 517.7 867.7 528.8 863.3L540 859L540 961L528.8 961C517.7 961 495.3 961 472.8 961C450.3 961 427.7 961 405.2 961C382.7 961 360.3 961 337.8 961C315.3 961 292.7 961 270.2 961C247.7 961 225.3 961 202.8 961C180.3 961 157.7 961 135.2 961C112.7 961 90.3 961 67.8 961C45.3 961 22.7 961 11.3 961L0 961Z" fill="#d1b5fd"></path></svg>